<svg version="1.1" id="Layer_1" xmlns="http://www.w3.org/2000/svg" xmlns:xlink="http://www.w3.org/1999/xlink" x="0px" y="0px"
	 width="100%" viewBox="0 0 1200 665" enable-background="new 0 0 1200 665" xml:space="preserve">
<path fill="#FEFFFF" opacity="1.000000" stroke="none" 
	d="
M717.000000,666.000000 
	C479.500000,666.000000 242.500031,665.989624 5.500083,666.093384 
	C1.750986,666.094971 0.904705,665.249390 0.906500,661.500000 
	C1.011202,442.833405 1.011200,224.166748 0.906525,5.500127 
	C0.904730,1.751068 1.750647,0.906070 5.499941,0.907007 
	C402.499908,1.006187 799.499878,1.006183 1196.499878,0.907047 
	C1200.248535,0.906111 1201.095337,1.750296 1201.093506,5.499890 
	C1200.988770,224.166504 1200.988770,442.833160 1201.093384,661.499756 
	C1201.095215,665.248474 1200.250122,666.096497 1196.500122,666.093933 
	C1036.833496,665.984680 877.166748,666.000000 717.000000,666.000000 
z"/>
<path fill="#0AD7FC" opacity="1.000000" stroke="none" 
	d="
M444.020752,366.026001 
	C429.731628,379.270233 413.188812,388.020264 395.451111,394.718323 
	C390.469360,396.599548 385.438110,398.357513 380.385834,400.040741 
	C377.757019,400.916565 376.845764,402.044922 377.552032,405.132874 
	C382.718750,427.723114 384.608551,450.506287 380.767487,473.541962 
	C378.913696,484.659393 374.532745,494.786774 366.909607,502.956421 
	C355.141388,515.568359 340.086365,516.047424 324.733276,511.824127 
	C306.131897,506.707275 290.121521,496.492310 275.246246,484.460571 
	C270.460052,480.589264 265.802887,476.537018 261.326935,472.312988 
	C259.218140,470.322906 257.878021,470.539276 255.926331,472.396759 
	C245.883789,481.954529 235.108490,490.665588 223.154663,497.668854 
	C209.176422,505.858215 194.734833,513.107483 177.996597,513.810486 
	C159.388901,514.592102 145.107727,504.842529 139.010773,487.224030 
	C132.763992,469.172607 131.945923,450.700043 134.659866,431.980743 
	C135.829407,423.913818 137.266342,415.873718 138.943024,407.897369 
	C139.764603,403.988983 139.281189,402.028900 134.947159,400.644043 
	C118.101120,395.261230 101.739166,388.639404 87.024506,378.601868 
	C77.488838,372.097168 68.917831,364.561554 62.231781,354.966583 
	C52.440296,340.915131 52.650021,324.664154 62.718014,310.771027 
	C71.339844,298.873474 82.794914,290.548859 95.357964,283.411163 
	C108.032455,276.210205 121.581543,271.182770 135.475464,267.027740 
	C138.945786,265.989929 140.263504,264.771912 139.358612,260.752747 
	C135.696228,244.486176 133.027939,228.047852 133.398163,211.285492 
	C133.650070,199.880630 135.673050,188.740143 139.568344,178.030060 
	C146.367020,159.337067 164.535614,149.739304 185.134216,153.918747 
	C199.359940,156.805161 212.162933,163.092514 224.365143,170.799316 
	C235.535828,177.854630 245.913086,185.912216 255.367966,195.104507 
	C258.082184,197.743347 259.346558,196.373032 261.379852,194.484299 
	C278.708801,178.387146 297.474213,164.456223 320.002869,156.339218 
	C327.128326,153.771942 334.499634,152.472305 342.064117,152.782990 
	C358.661835,153.464706 370.506958,163.076523 376.984161,180.943954 
	C383.112061,197.847900 382.352692,215.353943 381.328461,232.847778 
	C380.773071,242.334503 379.367371,251.736557 376.927795,260.930878 
	C375.928619,264.696503 377.161865,266.216187 380.781372,267.330078 
	C395.928101,271.991455 410.619202,277.791229 424.322479,285.885986 
	C434.736694,292.037781 444.203888,299.407379 451.755920,308.857941 
	C464.572418,324.896423 463.536987,344.587036 449.450684,360.353180 
	C447.786438,362.215912 446.000885,363.970276 444.020752,366.026001 
z"/>
<path fill="#11D8FC" opacity="1.000000" stroke="none" 
	d="
M604.965820,248.048599 
	C646.276550,256.277222 655.906189,304.401794 633.797180,331.202972 
	C626.809204,339.673950 617.450378,344.729126 606.622253,346.854614 
	C600.951965,347.967682 600.942932,347.913330 604.034302,352.562225 
	C616.842224,371.823456 629.677856,391.066467 642.410278,410.377502 
	C643.625366,412.220337 646.260925,414.261017 644.998474,416.365997 
	C644.009155,418.015533 640.965271,416.800659 638.846802,417.013763 
	C638.516724,417.046906 638.168762,416.963409 637.849243,417.030273 
	C625.238586,419.669403 618.034302,413.812866 611.966187,403.013031 
	C602.438721,386.056519 591.300110,370.008850 580.988770,353.485840 
	C579.096924,350.454346 576.923096,349.200256 573.307251,349.315582 
	C565.317871,349.570526 557.310608,349.545898 549.319031,349.326813 
	C545.582397,349.224396 544.433716,350.566589 544.460083,354.234802 
	C544.596619,373.228149 544.383362,392.224701 544.617676,411.216095 
	C544.674438,415.815826 543.332886,417.537872 538.707031,417.099152 
	C535.074036,416.754547 531.362732,416.788422 527.722290,417.089569 
	C523.855835,417.409424 522.960815,415.827698 522.987854,412.207611 
	C523.138489,392.048920 523.064331,371.888580 523.066711,351.728790 
	C523.070618,318.739899 523.139832,285.750702 522.998047,252.762436 
	C522.979553,248.455734 523.807800,246.657684 528.672974,246.768555 
	C552.983521,247.322571 577.312195,246.219070 601.620728,247.430161 
	C602.604797,247.479187 603.577271,247.758453 604.965820,248.048599 
z"/>
<path fill="#14D8FC" opacity="1.000000" stroke="none" 
	d="
M728.000000,361.716919 
	C714.508179,361.724213 701.513062,361.897278 688.526306,361.644318 
	C683.968079,361.555481 683.127197,363.316681 683.847595,367.294098 
	C687.467041,387.276855 704.240784,403.475861 725.150146,403.905914 
	C739.569092,404.202545 751.484741,399.459961 762.479248,391.128174 
	C765.066895,389.167206 766.651489,388.689362 768.210022,391.894104 
	C768.568665,392.631409 769.165894,393.253601 769.659119,393.924500 
	C775.149048,401.392517 775.133362,401.371399 767.929077,406.881256 
	C745.052734,424.377258 706.702454,425.458008 683.498047,405.193939 
	C672.698853,395.763245 666.401184,383.521271 664.079346,369.472443 
	C660.492065,347.766663 663.896362,327.552887 679.080627,310.674103 
	C696.295837,291.537750 717.767761,286.228455 742.092407,293.443359 
	C764.056824,299.958252 775.745300,316.146759 780.727722,337.730255 
	C782.186035,344.047638 782.789856,350.516937 782.889587,357.055634 
	C782.948547,360.924591 781.574463,361.815002 777.968506,361.780365 
	C761.480286,361.622040 744.989746,361.713379 728.000000,361.716919 
z"/>
<path fill="#14D8FC" opacity="1.000000" stroke="none" 
	d="
M814.479492,403.485962 
	C804.492310,387.685486 803.571350,371.951935 813.642151,356.270172 
	C821.551636,343.953918 833.967102,339.345337 847.747559,338.612793 
	C862.104248,337.849609 875.459412,341.458435 886.658325,351.130157 
	C887.409241,351.778656 888.156189,352.607727 889.245483,352.235382 
	C890.420959,351.833649 890.328979,350.673218 890.323120,349.703308 
	C890.283813,343.210449 890.730957,336.661377 890.036865,330.236816 
	C888.616455,317.091461 879.316956,309.086792 864.764954,307.956665 
	C849.859619,306.799103 836.274353,309.827057 825.634827,321.246368 
	C822.882019,324.200958 821.040527,323.910645 818.704346,320.621887 
	C811.856995,310.982330 811.704041,310.995667 820.894653,303.864197 
	C834.880859,293.011505 850.926880,289.573578 868.285217,290.863922 
	C875.159241,291.374939 881.735718,292.961945 888.023376,295.729401 
	C901.762451,301.776550 909.243408,312.892090 909.644409,327.323425 
	C910.439880,355.945251 909.908875,384.603241 910.009216,413.246002 
	C910.018921,416.013885 909.132996,417.176544 906.286682,417.062317 
	C902.462585,416.908844 898.613525,416.827026 894.801331,417.091064 
	C891.232361,417.338287 889.994080,415.957336 890.331299,412.505127 
	C890.553101,410.234436 890.373291,407.924561 890.373291,405.143097 
	C864.322144,423.365509 839.138672,428.445801 814.479492,403.485962 
z"/>
<path fill="#13D8FC" opacity="1.000000" stroke="none" 
	d="
M1045.184692,395.984802 
	C1048.098022,398.356781 1046.820557,400.212463 1045.119141,402.119171 
	C1036.843262,411.393707 1026.727539,417.482513 1014.353394,419.239807 
	C997.514709,421.631165 981.632324,419.475586 967.273804,409.335114 
	C951.273621,398.035156 943.500549,382.038177 941.484009,363.323608 
	C939.396118,343.946503 943.561646,325.823242 956.847534,310.718323 
	C970.790222,294.866638 988.674255,289.038574 1009.298584,290.896790 
	C1023.403076,292.167572 1035.635132,297.393738 1044.991455,308.546448 
	C1047.210205,311.191071 1047.397095,313.030304 1044.715088,315.147369 
	C1044.065796,315.659912 1043.540894,316.327515 1042.938721,316.902832 
	C1035.924072,323.605133 1035.920654,323.606720 1028.923828,317.024750 
	C1013.941956,302.931122 981.796936,304.749878 968.520386,327.009155 
	C958.358093,344.047211 958.243713,371.901398 972.178955,388.626251 
	C985.063538,404.090210 1011.948547,409.790192 1029.997314,392.290833 
	C1035.459595,386.994873 1035.324341,386.846008 1040.928467,391.953522 
	C1042.282593,393.187714 1043.598145,394.464478 1045.184692,395.984802 
z"/>
<path fill="#12D8FC" opacity="1.000000" stroke="none" 
	d="
M1098.064453,323.030609 
	C1098.066528,343.856140 1098.061279,364.185883 1098.081421,384.515656 
	C1098.083252,386.342682 1098.083618,388.195831 1098.366699,389.992340 
	C1100.298096,402.250000 1109.169067,406.548462 1119.803955,400.108582 
	C1122.965942,398.193878 1124.467773,398.204407 1125.265381,401.943146 
	C1125.367798,402.422974 1125.646729,402.864655 1125.839722,403.325745 
	C1129.942017,413.131317 1129.442139,414.479614 1119.364868,417.990356 
	C1111.613892,420.690613 1103.592896,420.812988 1095.724609,418.726593 
	C1086.058228,416.163361 1079.657471,407.769775 1079.058350,397.364807 
	C1077.898193,377.220978 1078.779785,357.054565 1078.543457,336.899628 
	C1078.459351,329.735291 1078.341553,322.563293 1078.584351,315.406494 
	C1078.713501,311.598572 1077.264771,310.380554 1073.642822,310.618500 
	C1070.158691,310.847382 1066.647461,310.670227 1063.148193,310.661316 
	C1062.149048,310.658752 1060.823486,311.029480 1060.202881,310.533813 
	C1055.583618,306.844421 1059.022705,301.701874 1058.054443,297.300293 
	C1057.461792,294.606171 1059.353882,293.963501 1061.708252,294.004395 
	C1065.872681,294.076721 1070.047119,293.856995 1074.202759,294.059174 
	C1077.474976,294.218384 1078.625000,292.968170 1078.566284,289.728149 
	C1078.418335,281.565826 1078.644897,273.396149 1078.461792,265.235260 
	C1078.374390,261.338684 1079.789185,260.113007 1083.714600,260.098785 
	C1098.041016,260.046936 1098.042114,259.908905 1098.062256,274.354340 
	C1098.068848,279.020172 1098.390869,283.715179 1097.976685,288.343872 
	C1097.541626,293.205139 1099.604004,294.385620 1104.002319,294.127502 
	C1109.150513,293.825409 1114.331421,294.130920 1119.494263,294.008575 
	C1121.993408,293.949371 1122.956177,294.756409 1123.132080,297.401428 
	C1124.013672,310.664490 1124.090088,310.659454 1110.861938,310.664978 
	C1110.528687,310.665131 1110.195435,310.664734 1109.862183,310.664032 
	C1098.061401,310.638916 1098.061401,310.638916 1098.064453,323.030609 
z"/>
<path fill="#F9FFFF" opacity="1.000000" stroke="none" 
	d="
M292.157684,397.632233 
	C269.614929,399.072876 247.489044,399.282898 225.351669,397.903198 
	C222.791550,397.743652 220.921524,396.964905 219.476501,394.845123 
	C206.706207,376.111908 195.246613,356.625580 185.532684,336.125092 
	C184.583832,334.122650 184.814987,332.346039 185.728683,330.409058 
	C195.122314,310.494995 206.275787,291.592560 218.455429,273.276733 
	C220.072174,270.845428 221.910980,269.213135 225.248688,269.021912 
	C241.054352,268.116272 256.867065,268.079926 272.682098,268.247894 
	C279.000061,268.314972 285.311249,268.881195 291.629913,269.085297 
	C294.135101,269.166199 295.510498,270.567627 296.794312,272.439117 
	C309.335602,290.721161 319.992218,310.101562 330.309448,329.685516 
	C331.486847,331.920410 331.784851,333.876801 330.573120,336.246704 
	C320.264130,356.409515 309.186646,376.120667 296.622681,394.980408 
	C295.587341,396.534546 294.253082,397.213959 292.157684,397.632233 
z"/>
<path fill="#FBFFFF" opacity="1.000000" stroke="none" 
	d="
M111.606575,372.450470 
	C97.633263,365.399628 84.979599,357.341217 76.316422,344.205414 
	C71.352608,336.678925 71.249046,329.541779 76.368332,321.968842 
	C85.116409,309.027740 97.995941,301.657043 111.447769,294.887512 
	C120.998428,290.081238 131.012451,286.582794 141.225021,283.516327 
	C144.151382,282.637665 145.510925,283.275940 146.402100,286.118958 
	C151.183777,301.373383 157.145035,316.183167 163.615036,330.786957 
	C164.525024,332.840942 164.372894,334.492035 163.503998,336.445984 
	C156.944626,351.196472 151.025864,366.199585 146.124146,381.588287 
	C145.273499,384.258759 144.216583,385.298615 141.087296,384.226044 
	C131.174316,380.828369 121.156891,377.746155 111.606575,372.450470 
z"/>
<path fill="#FBFFFF" opacity="1.000000" stroke="none" 
	d="
M181.210205,410.878174 
	C190.389084,411.963898 199.127563,413.054199 207.875656,414.060974 
	C210.523270,414.365723 212.460052,415.498077 214.083282,417.678650 
	C223.623474,430.494446 233.322815,443.191315 244.394272,454.752686 
	C246.044891,456.476349 246.040634,457.770844 244.327164,459.335541 
	C226.848755,475.296722 208.337341,489.600281 184.638763,495.086456 
	C167.434540,499.069214 156.635193,492.128113 153.229950,474.890900 
	C148.921188,453.080231 151.282623,431.497711 156.098801,410.049255 
	C156.692963,407.403137 158.026077,406.496979 160.715576,407.042725 
	C167.384506,408.395966 174.085403,409.591675 181.210205,410.878174 
z"/>
<path fill="#FBFFFF" opacity="1.000000" stroke="none" 
	d="
M327.140564,494.080078 
	C306.310211,487.655701 290.162720,474.563751 274.444733,460.802856 
	C272.337616,458.958099 270.521851,457.129822 273.279480,454.204926 
	C284.041290,442.790161 293.361755,430.217651 302.379395,417.418427 
	C304.052429,415.043793 306.104248,413.910431 309.013641,413.684631 
	C324.609497,412.474243 339.945038,409.484619 355.274200,406.536407 
	C358.071686,405.998383 359.601715,406.110870 360.341400,409.241821 
	C365.249664,430.016754 367.589874,450.881561 363.070862,472.058502 
	C362.090088,476.654663 360.291779,480.969788 358.241302,485.143982 
	C353.669159,494.451447 345.582855,497.908142 333.823517,495.766357 
	C331.700562,495.379669 329.627441,494.719482 327.140564,494.080078 
z"/>
<path fill="#FBFFFF" opacity="1.000000" stroke="none" 
	d="
M361.988037,192.206436 
	C366.785065,210.955750 365.178223,229.287827 361.545013,247.530197 
	C358.716095,261.734131 358.511902,261.674286 344.163269,258.649994 
	C332.463531,256.183960 320.668213,254.307587 308.758392,253.217484 
	C306.313477,252.993729 304.256592,252.352417 302.768860,250.224762 
	C293.532715,237.015610 283.233521,224.653229 272.589172,212.572388 
	C271.157318,210.947311 270.711548,209.617004 272.555939,207.955276 
	C291.090820,191.256104 310.193512,175.492859 335.734772,170.755096 
	C346.866272,168.690292 354.560364,173.031738 358.775055,183.390396 
	C359.902618,186.161697 360.853729,189.004807 361.988037,192.206436 
z"/>
<path fill="#FBFFFF" opacity="1.000000" stroke="none" 
	d="
M164.599335,173.324600 
	C173.395630,169.056564 181.771698,170.853180 190.125793,173.557541 
	C210.881668,180.276550 227.533234,193.394882 243.440460,207.697113 
	C245.451096,209.504868 245.721634,210.753387 243.643158,212.887848 
	C232.713211,224.112183 223.330154,236.629974 213.966187,249.146255 
	C212.276672,251.404510 210.538834,252.952820 207.544220,253.200409 
	C192.143646,254.473694 176.963104,257.254303 161.877747,260.484222 
	C158.164825,261.279205 156.843811,260.279297 156.095444,256.777527 
	C151.617966,235.826889 149.285782,214.778076 153.063568,193.462418 
	C154.460144,185.582367 157.572998,178.500824 164.599335,173.324600 
z"/>
<path fill="#FBFFFF" opacity="1.000000" stroke="none" 
	d="
M425.177094,359.215698 
	C410.037079,370.151764 393.600311,377.580658 376.182739,383.045654 
	C372.894775,384.077271 371.038330,383.940308 370.050873,380.101593 
	C366.260101,365.364594 359.362305,351.813782 353.444672,337.898285 
	C352.037750,334.589905 351.977844,331.906982 353.394440,328.509521 
	C359.149689,314.706573 365.544250,301.132874 369.503021,286.637665 
	C370.206573,284.061523 371.105927,282.576050 374.360291,283.567719 
	C393.093903,289.276276 410.899841,296.855286 426.700195,308.656708 
	C431.132019,311.966858 435.009857,315.885345 438.411041,320.190063 
	C444.682800,328.128052 444.688812,337.998596 438.534058,346.032135 
	C434.780273,350.931763 430.507324,355.373016 425.177094,359.215698 
z"/>
<path fill="#F0FEFE" opacity="1.000000" stroke="none" 
	d="
M346.371155,365.599548 
	C349.017181,372.476929 351.455475,379.020050 354.026001,385.510803 
	C354.997711,387.964478 354.405518,389.141418 351.788208,389.717651 
	C340.811432,392.134216 329.741699,393.826477 317.892090,394.727325 
	C319.809204,391.175049 321.167847,387.940826 323.138275,385.136475 
	C329.927551,375.473846 334.375397,364.427063 341.222473,354.228668 
	C344.112610,357.734375 344.777679,361.673462 346.371155,365.599548 
z"/>
<path fill="#F0FEFE" opacity="1.000000" stroke="none" 
	d="
M186.033661,373.965027 
	C190.165039,380.968048 194.132812,387.642242 198.324585,394.693207 
	C192.588272,395.652679 187.377914,393.640503 182.071960,393.287170 
	C176.478439,392.914673 170.946411,391.611359 165.389328,390.703644 
	C163.359329,390.372040 161.837799,389.650177 162.622116,387.108734 
	C165.940445,376.356415 169.501678,365.699493 174.983322,354.722351 
	C178.859039,361.455688 182.364548,367.545929 186.033661,373.965027 
z"/>
<path fill="#F0FEFE" opacity="1.000000" stroke="none" 
	d="
M263.592316,228.418839 
	C268.977844,234.979416 274.155090,241.256790 279.252808,247.598160 
	C280.260864,248.852158 282.520691,250.886719 278.469360,250.907913 
	C264.223877,250.982437 249.977753,250.936829 234.547714,250.936829 
	C237.302734,247.198288 239.307755,244.255356 241.541061,241.497284 
	C245.198288,236.980728 248.919861,232.510071 252.767685,228.155563 
	C257.919434,222.325409 257.982239,222.380920 263.592316,228.418839 
z"/>
<path fill="#F0FEFE" opacity="1.000000" stroke="none" 
	d="
M258.894043,443.623901 
	C249.322235,436.047943 242.779663,426.143951 234.463211,416.194397 
	C250.905090,416.194397 265.920410,416.194397 281.764008,416.194397 
	C274.595856,426.022034 267.706329,435.414825 258.894043,443.623901 
z"/>
<path fill="#F0FEFE" opacity="1.000000" stroke="none" 
	d="
M351.212341,287.233337 
	C348.397339,294.753357 345.700531,301.903259 343.057648,309.072998 
	C342.101410,311.667114 341.025391,312.630768 339.304871,309.623596 
	C332.307281,297.393158 325.309662,285.162720 318.078064,272.523285 
	C329.636169,272.943909 340.412323,275.206848 351.217743,277.284729 
	C353.683685,277.758911 354.141479,279.081177 353.339447,281.232666 
	C352.643494,283.099701 352.011871,284.990692 351.212341,287.233337 
z"/>
<path fill="#F0FEFE" opacity="1.000000" stroke="none" 
	d="
M184.608826,295.598145 
	C181.448868,301.076324 178.469360,306.233337 175.284378,311.746033 
	C172.427353,308.667389 171.688126,304.886322 170.185883,301.516846 
	C167.274170,294.985992 165.276810,288.131500 163.100891,281.338165 
	C162.374969,279.071808 162.326950,277.594574 165.228119,277.048828 
	C175.890152,275.043274 186.544220,273.029633 198.208801,272.239349 
	C193.722183,280.369812 188.400711,287.349884 184.608826,295.598145 
z"/>
<path fill="#F9FEFF" opacity="1.000000" stroke="none" 
	d="
M613.851929,275.143677 
	C624.210938,285.911255 625.170654,298.572174 620.379883,311.180237 
	C615.391235,324.308716 604.028625,330.261963 590.411682,330.827576 
	C576.270203,331.414917 562.086365,330.948517 547.921814,331.045746 
	C545.146179,331.064789 544.141602,330.092926 544.155640,327.259796 
	C544.251404,307.927429 544.236206,288.594360 544.190247,269.261658 
	C544.184570,266.878479 544.817810,265.309021 547.467102,265.367462 
	C563.276611,265.716125 579.120361,264.349060 594.896179,266.138336 
	C602.051270,266.949860 608.282715,270.008667 613.851929,275.143677 
z"/>
<path fill="#F9FEFF" opacity="1.000000" stroke="none" 
	d="
M687.880798,329.009613 
	C701.863525,299.782837 739.080627,302.542694 752.473450,318.556915 
	C758.500671,325.763947 762.479980,333.798401 763.777100,343.152466 
	C764.158691,345.904297 763.459778,347.124817 760.449158,347.116089 
	C735.789124,347.044739 711.128784,347.044830 686.468750,347.111359 
	C683.358765,347.119751 682.808594,345.761536 683.341064,343.077606 
	C684.283569,338.326935 685.306641,333.619690 687.880798,329.009613 
z"/>
<path fill="#F9FFFF" opacity="1.000000" stroke="none" 
	d="
M878.898682,401.003845 
	C867.726562,406.753937 856.329651,407.513947 844.769287,404.348328 
	C834.741455,401.602295 827.644470,392.571869 826.861633,382.641907 
	C825.870483,370.069153 830.340088,361.507996 840.630981,356.267792 
	C854.169617,349.373810 876.540710,352.787140 886.849548,363.238434 
	C889.043945,365.463165 890.505371,367.782745 890.456726,371.088837 
	C890.373718,376.725098 890.588257,382.366241 890.707886,388.004730 
	C890.765747,390.733856 889.316528,392.713593 887.574158,394.562927 
	C885.153442,397.132263 882.171997,398.960236 878.898682,401.003845 
z"/>
<path fill="#05D8FE" opacity="1.000000" stroke="none" 
	d="
M294.094940,336.666138 
	C291.545807,358.793793 269.130859,375.740570 245.136932,366.952209 
	C229.336502,361.165009 220.101227,345.548889 222.066254,328.397400 
	C223.905518,312.343903 237.027206,299.426788 253.129700,297.088562 
	C276.249573,293.731354 296.473633,314.513153 294.094940,336.666138 
z"/>
</svg>