<svg version="1.1" id="Layer_1" xmlns="http://www.w3.org/2000/svg" xmlns:xlink="http://www.w3.org/1999/xlink" x="0px" y="0px"
	 width="100%" viewBox="0 0 301 167" enable-background="new 0 0 301 167" xml:space="preserve">
<path fill="#FEFEFE" opacity="1.000000" stroke="none" 
	d="
M207.000000,168.000000 
	C139.333344,168.000000 72.166618,167.966690 5.000211,168.096558 
	C1.575614,168.103180 0.894026,167.424957 0.902743,163.999786 
	C1.041012,109.666809 1.000000,55.333374 1.000000,1.000022 
	C99.999969,1.000000 198.999969,1.022715 297.999786,0.904444 
	C301.423737,0.900353 302.106354,1.574823 302.097351,5.000175 
	C301.957977,57.999798 301.958008,111.000008 302.097351,163.999634 
	C302.106354,167.424591 301.427124,168.119370 297.999512,168.099792 
	C267.833832,167.927582 237.666702,168.000000 207.000000,168.000000 
z"/>
<path fill="#0CB7D5" opacity="1.000000" stroke="none" 
	d="
M13.180053,87.028793 
	C22.053667,82.567245 28.601889,83.621552 35.652397,90.392693 
	C41.642406,96.145370 43.975979,96.470810 50.675812,92.487846 
	C48.569000,101.267319 37.200535,105.142151 28.594810,99.968834 
	C27.325184,99.205597 26.048756,98.322800 25.068218,97.232124 
	C20.757545,92.437347 16.078863,89.189468 8.991418,93.740341 
	C9.450519,90.205635 11.173689,88.729431 13.180053,87.028793 
z"/>
<path fill="#0CB7D5" opacity="1.000000" stroke="none" 
	d="
M64.538269,75.946983 
	C62.976101,82.676971 55.318760,85.962570 47.047794,83.633141 
	C44.091614,82.800568 41.459366,81.333099 39.492554,78.991341 
	C35.091938,73.751839 30.113470,71.744881 23.799612,76.141342 
	C24.324152,67.017319 39.249626,63.709347 47.072403,69.492378 
	C48.404613,70.477219 49.710903,71.574127 50.771004,72.836128 
	C54.488956,77.262192 58.940220,78.152946 64.538269,75.946983 
z"/>
<path fill="#0E0E0E" opacity="1.000000" stroke="none" 
	d="
M162.965836,95.162041 
	C161.881332,91.622360 160.860077,88.480995 159.470367,84.206268 
	C158.073914,88.561501 156.994965,91.892921 155.939804,95.231865 
	C155.427429,96.853188 154.993622,98.287498 152.679016,98.136765 
	C150.714890,98.008842 150.287750,96.977257 149.817093,95.394768 
	C148.042740,89.428787 146.117081,83.507805 143.957214,76.645920 
	C152.417511,78.441628 149.503052,86.100685 152.945557,90.009659 
	C154.346893,88.488869 154.136353,85.942451 155.253448,84.085892 
	C156.644806,81.773476 155.114685,77.356453 159.379868,77.207825 
	C163.926651,77.049377 162.279114,81.571571 163.560669,83.878204 
	C164.542618,85.645538 164.914780,87.751678 165.602768,89.842743 
	C169.902206,86.359802 165.889420,77.650391 174.787384,76.940948 
	C172.704193,83.734024 170.825760,89.862289 168.945038,95.989861 
	C168.583115,97.169106 168.032684,97.974014 166.575180,98.108978 
	C164.529068,98.298431 163.448212,97.472244 162.965836,95.162041 
z"/>
<path fill="#090909" opacity="1.000000" stroke="none" 
	d="
M214.189926,95.784790 
	C209.540344,91.246666 210.144287,83.901611 213.627808,80.094482 
	C217.140488,76.255432 221.737213,75.835403 228.232285,78.977310 
	C229.124817,76.367722 228.583435,73.696121 228.614365,71.081833 
	C228.636383,69.220154 229.494308,68.934402 231.067612,68.898216 
	C232.646362,68.861916 233.047195,69.505112 233.040359,70.947571 
	C233.000870,79.272820 232.973831,87.598831 233.058426,95.923416 
	C233.077271,97.778053 231.841736,98.834358 230.783417,97.948669 
	C227.762924,95.420921 225.397675,97.987350 222.778152,98.405190 
	C219.623962,98.908310 216.887375,98.065948 214.189926,95.784790 
z"/>
<path fill="#0A0A0A" opacity="1.000000" stroke="none" 
	d="
M113.885628,97.416306 
	C108.836922,99.329514 104.560081,98.652245 101.377335,94.727776 
	C98.288010,90.918503 97.911880,86.459381 100.243973,82.140137 
	C102.303162,78.326294 105.722809,76.576355 110.166916,76.828804 
	C113.117638,76.996429 115.772499,79.816414 119.135246,77.258484 
	C120.599899,76.144363 121.053230,78.143341 121.047607,79.548752 
	C121.028320,84.366013 121.061096,89.183495 121.035934,94.000694 
	C121.010109,98.942810 120.911263,99.004524 116.422516,96.609749 
	C115.422348,96.076141 114.957367,96.953117 113.885628,97.416306 
z"/>
<path fill="#050505" opacity="1.000000" stroke="none" 
	d="
M207.034363,96.643341 
	C204.260193,98.813286 202.576218,98.686852 202.731522,94.800247 
	C202.850815,91.815155 202.864120,88.812492 202.680969,85.832619 
	C202.515549,83.141556 201.462570,81.007179 198.249573,80.871178 
	C195.079315,80.736984 193.041168,82.197723 192.716095,85.304550 
	C192.372269,88.590469 192.435211,91.924149 192.422684,95.237343 
	C192.416550,96.859970 192.442459,98.076813 190.170990,98.118950 
	C187.817108,98.162613 187.974670,96.833298 187.982315,95.284904 
	C188.007706,90.134575 187.977478,84.983978 188.002640,79.833649 
	C188.008820,78.570938 188.074600,76.342674 189.772812,77.337959 
	C193.109116,79.293274 195.762817,76.866402 198.725037,76.821945 
	C203.635468,76.748245 206.715286,79.537643 206.978989,84.720947 
	C207.172928,88.532867 207.038025,92.361519 207.034363,96.643341 
z"/>
<path fill="#0C0C0C" opacity="1.000000" stroke="none" 
	d="
M290.980835,98.110229 
	C287.009094,99.147408 283.699188,98.690521 280.860168,96.135254 
	C280.017822,95.377113 278.834381,94.376205 280.097626,93.303032 
	C280.914368,92.609169 282.043121,91.205170 283.510254,92.662239 
	C284.081421,93.229492 284.762390,93.740814 285.483765,94.091751 
	C287.450073,95.048325 289.758789,95.185265 290.710419,93.124481 
	C291.844269,90.669144 289.431671,90.251762 287.681824,89.732498 
	C287.207001,89.591591 286.774170,89.307228 286.298431,89.171623 
	C283.194153,88.286774 280.147980,87.380501 279.959747,83.314636 
	C279.838074,80.686310 280.997925,78.845894 283.316986,77.759560 
	C286.727600,76.161903 290.087860,76.310349 293.128326,78.598999 
	C293.870728,79.157867 295.660400,79.879570 294.507050,81.175018 
	C293.740845,82.035637 292.508514,83.715561 290.842712,82.169815 
	C290.085449,81.467155 289.307831,80.943779 288.248718,80.862000 
	C286.682465,80.741051 285.005524,80.774803 284.627502,82.593788 
	C284.298645,84.176224 285.696167,84.819656 287.043335,85.219421 
	C288.152435,85.548546 289.263428,85.876053 290.356079,86.254875 
	C292.973175,87.162254 295.265106,88.444855 295.612213,91.568176 
	C295.978821,94.867035 294.277374,96.866692 290.980835,98.110229 
z"/>
<path fill="#0D0D0D" opacity="1.000000" stroke="none" 
	d="
M246.515076,98.390068 
	C240.544434,96.696121 237.438126,93.441811 237.198990,88.389191 
	C236.987274,83.915756 238.733994,80.138756 242.841370,78.076927 
	C246.976349,76.001236 251.239639,76.057335 254.983551,79.137138 
	C255.927673,79.913788 258.109436,80.800110 256.468140,82.564049 
	C255.459778,83.647758 254.185135,84.567352 252.332993,82.759491 
	C249.510178,80.004173 246.111206,80.484924 243.483154,83.256447 
	C240.990631,85.885078 241.057144,89.168533 243.240616,91.901901 
	C245.669083,94.941925 249.093216,95.234085 252.084473,92.912331 
	C253.993195,91.430809 255.590363,91.351860 256.681976,93.022186 
	C258.026031,95.078751 255.543976,95.769234 254.419876,96.637505 
	C252.249878,98.313667 249.629028,98.780411 246.515076,98.390068 
z"/>
<path fill="#0D0D0D" opacity="1.000000" stroke="none" 
	d="
M265.824341,93.980621 
	C268.443756,95.016960 270.935303,95.176468 271.601288,92.586349 
	C272.205780,90.235321 269.414093,90.194252 267.855835,89.506546 
	C266.652374,88.975433 265.366791,88.633759 264.144012,88.142365 
	C261.944153,87.258301 260.731354,85.740837 260.709717,83.226990 
	C260.686951,80.584557 261.787384,78.710251 264.122498,77.675201 
	C267.543030,76.159012 270.909912,76.343269 273.933075,78.688164 
	C274.721252,79.299515 276.283325,80.118782 274.977844,81.374031 
	C274.226196,82.096802 273.232513,83.546921 271.688812,82.323570 
	C271.057251,81.823082 270.388519,81.230301 269.644379,81.039482 
	C267.994965,80.616547 266.051361,80.420097 265.333344,82.345787 
	C264.594025,84.328552 266.520538,84.758774 267.866577,85.280052 
	C269.559784,85.935799 271.338135,86.380333 273.007660,87.086456 
	C275.211182,88.018402 276.203979,89.773781 276.267548,92.193878 
	C276.331879,94.642899 275.285156,96.423050 273.204193,97.455406 
	C269.708801,99.189476 266.098877,99.160553 262.770599,97.094398 
	C261.582520,96.356880 259.224152,95.421761 260.661163,93.448044 
	C262.013489,91.590683 263.989990,91.647568 265.824341,93.980621 
z"/>
<path fill="#0B0B0B" opacity="1.000000" stroke="none" 
	d="
M87.040833,72.638290 
	C89.383476,70.528923 91.724609,69.016670 91.469070,73.840446 
	C91.332764,76.413353 92.059601,77.572014 94.754150,77.207245 
	C96.087196,77.026779 96.954521,77.511375 96.923294,79.133759 
	C96.897041,80.497681 96.654549,81.512634 95.034958,81.277817 
	C91.486313,80.763306 91.316162,82.933479 91.501923,85.522293 
	C91.597092,86.848557 91.527458,88.187340 91.517090,89.520340 
	C91.498146,91.956314 91.442047,94.387207 95.024307,94.080055 
	C96.627365,93.942596 96.854851,94.966492 96.915573,96.307007 
	C96.995544,98.072418 95.851234,98.029907 94.663666,98.176308 
	C90.021675,98.748558 87.404526,96.657082 87.041679,91.837387 
	C86.866989,89.517006 86.991058,87.174171 86.978889,84.841499 
	C86.970459,83.224533 87.416435,81.371788 84.733246,81.436012 
	C83.437820,81.467026 83.197586,80.449959 83.212341,79.350967 
	C83.226486,78.297829 83.306961,77.199440 84.675491,77.247444 
	C88.338181,77.375916 86.535522,74.608360 87.040833,72.638290 
z"/>
<path fill="#1B1B1B" opacity="1.000000" stroke="none" 
	d="
M140.786255,82.999298 
	C140.785767,87.474144 140.722687,91.452827 140.812866,95.428032 
	C140.854080,97.245079 140.402405,98.111038 138.358597,98.157379 
	C136.206665,98.206169 135.998962,97.193245 136.011551,95.454201 
	C136.072708,87.002968 136.066467,78.550873 136.013077,70.099533 
	C136.003250,68.541939 136.237442,67.587822 138.108307,67.619003 
	C139.844940,67.647957 140.897156,67.940681 140.826492,70.074097 
	C140.689377,74.212540 140.786301,78.358727 140.786255,82.999298 
z"/>
<path fill="#0A0A0A" opacity="1.000000" stroke="none" 
	d="
M126.587540,93.684784 
	C126.587662,89.090195 126.517319,84.959869 126.623817,80.834106 
	C126.663979,79.278633 125.653053,76.965683 128.901245,77.097038 
	C132.183929,77.229797 130.840851,79.615112 130.894043,81.074829 
	C131.056274,85.527710 131.056595,89.994209 130.887268,94.446564 
	C130.838913,95.718056 132.214920,97.888435 129.197784,98.096611 
	C125.743958,98.334930 126.738388,95.931999 126.587540,93.684784 
z"/>
<path fill="#212222" opacity="1.000000" stroke="none" 
	d="
M182.883179,85.081665 
	C182.882828,88.871193 182.808167,92.179321 182.911499,95.481880 
	C182.968475,97.302879 182.523376,98.173668 180.471405,98.164650 
	C178.333374,98.155258 178.104416,97.074753 178.125717,95.367249 
	C178.187561,90.409317 178.125580,85.449959 178.159851,80.491493 
	C178.170624,78.933456 177.656769,77.132950 180.357010,77.016594 
	C183.392242,76.885796 182.847549,78.882515 182.878342,80.631050 
	C182.901642,81.952965 182.883102,83.275612 182.883179,85.081665 
z"/>
<path fill="#121212" opacity="1.000000" stroke="none" 
	d="
M127.397461,68.817375 
	C130.275177,68.094200 131.579910,69.219124 131.209183,71.721123 
	C130.927780,73.620346 129.382858,74.661713 127.609932,73.698784 
	C125.545433,72.577499 125.046509,70.801018 127.397461,68.817375 
z"/>
<path fill="#0F0F0F" opacity="1.000000" stroke="none" 
	d="
M177.902969,71.926758 
	C177.841354,68.919472 179.269196,67.993866 181.594467,68.781281 
	C183.635559,69.472435 183.730820,71.353073 182.678925,72.742455 
	C181.152924,74.758034 179.373398,74.385994 177.902969,71.926758 
z"/>
<path fill="#0CB7D5" opacity="1.000000" stroke="none" 
	d="
M64.960083,75.979691 
	C64.967079,75.986641 64.952835,75.864326 64.938385,75.916138 
	C64.923935,75.967949 64.953094,75.972733 64.960083,75.979691 
z"/>
<path fill="#F6F6F6" opacity="1.000000" stroke="none" 
	d="
M221.978546,80.915344 
	C226.850876,81.378883 228.876938,84.215202 228.559906,88.333206 
	C228.295547,91.766830 226.096832,94.078247 222.370361,94.277397 
	C218.432236,94.487846 216.163132,92.346802 215.297943,88.711029 
	C214.418304,85.014519 216.807938,82.159058 221.978546,80.915344 
z"/>
<path fill="#F6F6F6" opacity="1.000000" stroke="none" 
	d="
M116.718521,87.908112 
	C115.975090,91.712715 114.171379,94.060829 110.443550,94.261093 
	C107.577950,94.415047 105.363258,93.350838 103.974609,90.627518 
	C102.585121,87.902534 103.065948,85.483116 104.818848,83.238945 
	C106.525520,81.053947 108.940109,80.523384 111.529053,81.069748 
	C114.949875,81.791679 116.254456,84.364754 116.718521,87.908112 
z"/>
</svg>