<svg width="167" height="30" viewBox="0 0 167 30" fill="none" xmlns="http://www.w3.org/2000/svg">
<path d="M0.128906 27.8672C0.128906 26.8516 2.54427 22.8737 7.375 15.9336C12.2188 8.99349 14.6406 5.25651 14.6406 4.72266C14.6406 4.17578 13.612 3.90234 11.5547 3.90234C7.83073 3.90234 5.41536 4.1888 4.30859 4.76172C3.8138 5.02214 3.27995 5.66016 2.70703 6.67578C2.13411 7.69141 1.6263 8.19922 1.18359 8.19922C0.623698 8.19922 0.34375 7.80208 0.34375 7.00781C0.34375 4.40365 0.623698 2.82161 1.18359 2.26172C1.52214 1.92318 3.65755 1.75391 7.58984 1.75391H9.93359L11.4961 1.77344C12.0169 1.78646 12.5378 1.79297 13.0586 1.79297L14.6016 1.83203C15.1224 1.84505 15.8971 1.85156 16.9258 1.85156C19.2305 1.85156 20.3828 2.15755 20.3828 2.76953C20.3828 3.36849 17.9805 7.37891 13.1758 14.8008C8.38411 22.2096 5.98828 26.1419 5.98828 26.5977C5.98828 26.8971 7.52474 27.0469 10.5977 27.0469C13.6706 27.0469 15.793 26.819 16.9648 26.3633C17.694 26.0768 18.2995 25.5039 18.7812 24.6445C19.6016 23.1862 20.168 22.457 20.4805 22.457C20.9492 22.457 21.1836 22.8216 21.1836 23.5508C21.1836 25.8555 20.8711 27.4375 20.2461 28.2969C19.8424 28.8568 18.5664 29.1367 16.418 29.1367H11.8672L3.52734 28.9805C2.00391 28.9805 1.05339 28.8893 0.675781 28.707C0.311198 28.5117 0.128906 28.2318 0.128906 27.8672ZM25.0117 27.9844C25.0117 27.75 25.2982 27.3464 25.8711 26.7734C26.457 26.1875 26.8021 25.5234 26.9062 24.7812C27.0234 24.0391 27.082 20.8034 27.082 15.0742C27.082 9.33203 26.9714 5.67318 26.75 4.09766C26.6458 3.36849 26.418 2.88021 26.0664 2.63281C25.1419 1.98177 24.6797 1.63021 24.6797 1.57812C24.6797 1.34375 24.9922 1.07682 25.6172 0.777344C26.2422 0.477865 27.2513 0.328125 28.6445 0.328125C29.556 0.328125 30.1354 0.647135 30.3828 1.28516C30.5651 1.75391 30.6562 2.8151 30.6562 4.46875L30.5977 6.61719C30.5586 8.0625 30.5391 9.03255 30.5391 9.52734C30.5391 11.0638 30.7539 11.832 31.1836 11.832C31.2617 11.832 32.0039 11.5586 33.4102 11.0117C34.8294 10.4648 36.0339 10.1914 37.0234 10.1914C39.1328 10.1914 40.6562 10.9531 41.5938 12.4766C42.349 13.7266 42.7266 16.0443 42.7266 19.4297L42.707 20.8945L42.6875 21.6172L42.668 23.8047C42.668 25.1068 42.7656 25.9271 42.9609 26.2656C43.1562 26.5911 43.5273 26.9557 44.0742 27.3594C44.6341 27.75 44.9141 28.0234 44.9141 28.1797C44.9141 28.6875 43.9766 28.9414 42.1016 28.9414L41.418 28.9805L39.3477 29.0586C38.1758 29.0586 37.5898 28.8372 37.5898 28.3945C37.5898 28.1862 37.7982 27.8216 38.2148 27.3008C38.6445 26.7799 38.9049 26.4219 38.9961 26.2266C39.0872 26.0182 39.1328 24.9961 39.1328 23.1602L39.0938 21.7344L39.1133 19.5273C39.1133 16.5846 38.8464 14.6771 38.3125 13.8047C37.7917 12.9323 36.9844 12.4961 35.8906 12.4961C34.8099 12.4961 33.8333 12.7435 32.9609 13.2383C32.1016 13.7201 31.5156 14.3255 31.2031 15.0547C30.8906 15.7839 30.7344 17.737 30.7344 20.9141C30.7344 24.0781 30.8125 25.8294 30.9688 26.168C31.138 26.5065 31.4635 26.8841 31.9453 27.3008C32.4271 27.7044 32.668 27.9779 32.668 28.1211C32.668 28.668 31.3919 28.9414 28.8398 28.9414C26.2878 28.9414 25.0117 28.6224 25.0117 27.9844ZM57.6289 19.9766C55.9362 19.9766 54.5625 20.3867 53.5078 21.207C52.4531 22.0273 51.9258 22.9193 51.9258 23.8828V24.5469C51.9518 24.7031 51.9648 24.8333 51.9648 24.9375C51.9648 25.5625 52.2383 26.0898 52.7852 26.5195C53.3451 26.9492 53.8984 27.1641 54.4453 27.1641H55.0703C55.9297 27.1641 56.8997 26.7865 57.9805 26.0312C58.7617 25.4844 59.1523 24.7943 59.1523 23.9609C59.1784 23.8047 59.1914 23.6875 59.1914 23.6094L59.2305 23.1016V22.4961L59.25 22.125V20.7773C59.25 20.2044 59.0807 19.918 58.7422 19.918H58.2539C58.0195 19.957 57.8112 19.9766 57.6289 19.9766ZM55.9688 9.97656H56.457C59.1784 9.97656 61.0404 10.8034 62.043 12.457C62.6549 13.4727 62.9609 15.8294 62.9609 19.5273C62.9609 23.2253 63.013 25.25 63.1172 25.6016C63.2865 26.1875 63.6576 26.5781 64.2305 26.7734C65.168 27.099 65.6367 27.3203 65.6367 27.4375V27.7305C65.6367 27.9909 65.3372 28.2969 64.7383 28.6484C64.1393 29 63.2539 29.1758 62.082 29.1758C61.4049 29.1758 60.793 28.8828 60.2461 28.2969C59.6992 27.6979 59.3411 27.3984 59.1719 27.3984C59.1589 27.3984 58.4362 27.7305 57.0039 28.3945C55.5716 29.0586 54.4453 29.3906 53.625 29.3906H52.707C51.457 29.3906 50.4023 28.9544 49.543 28.082C48.6966 27.1966 48.2734 26.2396 48.2734 25.2109V24.7227C48.2734 23.082 48.8919 21.7669 50.1289 20.7773C50.9753 20.1003 52.1927 19.5404 53.7812 19.0977C53.9635 19.0456 54.6797 18.8893 55.9297 18.6289C57.1797 18.3555 57.9414 18.1536 58.2148 18.0234C58.931 17.6719 59.2891 16.9102 59.2891 15.7383C59.2891 14.5534 58.9701 13.6224 58.332 12.9453C57.694 12.2552 56.8216 11.9102 55.7148 11.9102C54.6081 11.9102 53.6445 12.5156 52.8242 13.7266C52.0039 14.9375 51.151 15.543 50.2656 15.543C50.0703 15.543 49.8229 15.3997 49.5234 15.1133C49.224 14.8268 49.0742 14.3776 49.0742 13.7656C49.0742 12.8151 49.582 12.0404 50.5977 11.4414C52.2513 10.4648 54.0417 9.97656 55.9688 9.97656ZM76.8477 28.1406C76.8477 28.6224 76.0078 28.8633 74.3281 28.8633L72.5312 28.8047C72.1406 28.7917 71.5547 28.7852 70.7734 28.7852C69.5625 28.7852 68.957 28.4727 68.957 27.8477C68.957 27.6393 69.2826 27.3789 69.9336 27.0664C70.5977 26.7539 71.0078 26.4089 71.1641 26.0312C71.3333 25.6406 71.418 24.599 71.418 22.9062V19.4688L71.3789 18.2578V16.0508C71.3789 14.9831 71.3008 14.2148 71.1445 13.7461C71.0013 13.2643 70.6432 12.8737 70.0703 12.5742C69.4974 12.2617 69.2109 12.0404 69.2109 11.9102C69.2109 11.5195 69.4193 11.2266 69.8359 11.0312C70.6693 10.6536 71.8086 10.4648 73.2539 10.4648C73.9961 10.4648 74.5039 10.7513 74.7773 11.3242C75.2201 12.2227 75.4674 12.6719 75.5195 12.6719C75.5586 12.6719 75.8385 12.4896 76.3594 12.125C78.1693 10.8229 79.8034 10.1654 81.2617 10.1523H81.8672C84.1849 10.1654 85.8125 11.1745 86.75 13.1797C87.2188 14.1953 87.4531 17.1836 87.4531 22.1445C87.4531 24.5664 87.5378 25.9466 87.707 26.2852C87.8893 26.6237 88.3125 26.9492 88.9766 27.2617C89.6536 27.5742 89.9922 27.8477 89.9922 28.082C89.9922 28.6289 88.2083 28.9023 84.6406 28.9023H84.0547C82.9089 28.9023 82.3359 28.7266 82.3359 28.375C82.3359 28.0234 82.5378 27.6589 82.9414 27.2812C83.3451 26.9036 83.5859 26.6042 83.6641 26.3828C83.7552 26.1615 83.8008 25.6276 83.8008 24.7812C83.8008 23.9349 83.7943 23.3099 83.7812 22.9062L83.7422 21.6953V19.1758C83.7422 16.4935 83.4688 14.6966 82.9219 13.7852C82.388 12.8607 81.418 12.3984 80.0117 12.3984C79.3086 12.3984 78.5664 12.6068 77.7852 13.0234C77.0039 13.4271 76.3724 13.9674 75.8906 14.6445C75.4089 15.3216 75.168 17.0404 75.168 19.8008L75.0508 23.4727C75.0508 24.7227 75.1419 25.5885 75.3242 26.0703C75.5065 26.5391 75.806 26.9622 76.2227 27.3398C76.6393 27.7174 76.8477 27.9844 76.8477 28.1406ZM130.539 28.2188C130.539 28.7786 129.081 29.0586 126.164 29.0586C123.247 29.0586 121.789 28.7917 121.789 28.2578C121.789 27.9193 121.932 27.6133 122.219 27.3398C123 26.5977 123.443 26.0573 123.547 25.7188C123.664 25.3802 123.723 23.8568 123.723 21.1484C123.723 18.4401 123.43 16.9036 122.844 16.5391C122.258 16.1615 120.357 15.9727 117.141 15.9727C113.924 15.9727 111.984 16.207 111.32 16.6758C110.93 16.9492 110.734 18.5052 110.734 21.3438C110.734 24.1823 110.806 25.7839 110.949 26.1484C111.092 26.513 111.405 26.9492 111.887 27.457C112.382 27.9648 112.629 28.3164 112.629 28.5117C112.629 28.9154 111.398 29.1172 108.938 29.1172L108 29.0977H107.062C104.719 29.0977 103.547 28.7721 103.547 28.1211C103.547 27.8086 103.938 27.4505 104.719 27.0469C105.513 26.6432 106.008 26.1354 106.203 25.5234C106.398 24.8984 106.496 21.6628 106.496 15.8164C106.496 9.97005 106.405 6.59766 106.223 5.69922C106.053 4.78776 105.682 4.16927 105.109 3.84375C104.107 3.25781 103.605 2.88021 103.605 2.71094C103.605 2.17708 105.513 1.91016 109.328 1.91016C111.542 1.91016 112.648 2.14453 112.648 2.61328C112.648 2.95182 112.492 3.24479 112.18 3.49219C111.411 4.11719 110.969 4.63151 110.852 5.03516C110.734 5.4388 110.676 6.82552 110.676 9.19531C110.676 11.5521 110.949 12.9062 111.496 13.2578C112.056 13.6094 113.97 13.7852 117.238 13.7852C120.52 13.7852 122.375 13.6289 122.805 13.3164C123.247 13.0039 123.469 11.9818 123.469 10.25L123.488 9.33203L123.527 8.41406C123.54 8.01042 123.547 7.38542 123.547 6.53906C123.547 5.67969 123.339 4.97656 122.922 4.42969L122.023 3.53125C121.672 3.16667 121.496 2.88021 121.496 2.67188C121.496 2.1901 123.645 1.94922 127.941 1.94922C129.751 1.94922 130.656 2.20964 130.656 2.73047C130.656 3.08203 130.396 3.40755 129.875 3.70703C128.872 4.29297 128.306 4.78776 128.176 5.19141C128.046 5.59505 127.98 8.04948 127.98 12.5547L127.844 23.1797C127.844 24.8594 128.046 25.9727 128.449 26.5195C128.618 26.7539 129.009 27.0404 129.621 27.3789C130.233 27.7174 130.539 27.9974 130.539 28.2188ZM154.484 28.0039C154.484 28.1862 154.257 28.4206 153.801 28.707C153.345 28.9805 152.583 29.1172 151.516 29.1172C150.448 29.1172 149.764 29.013 149.465 28.8047C149.165 28.5964 148.905 28.2188 148.684 27.6719C148.475 27.125 148.28 26.8516 148.098 26.8516C147.928 26.8516 147.557 27.0599 146.984 27.4766C145.279 28.7135 143.684 29.332 142.199 29.332C142.186 29.332 142.173 29.332 142.16 29.332H141.574C139.413 29.332 137.857 28.4336 136.906 26.6367C136.411 25.6992 136.164 23.2904 136.164 19.4102C136.164 15.5299 136.079 13.4271 135.91 13.1016C135.754 12.763 135.331 12.4766 134.641 12.2422C133.964 12.0078 133.625 11.7018 133.625 11.3242L133.82 10.9922C134.38 10.5234 135.806 10.2891 138.098 10.2891C139.009 10.2891 139.543 10.7122 139.699 11.5586C139.934 12.8607 140.051 15.25 140.051 18.7266C140.051 22.1901 140.22 24.2865 140.559 25.0156C141.158 26.2917 142.147 26.9297 143.527 26.9297C144.309 26.9297 145.109 26.7279 145.93 26.3242C146.75 25.9076 147.355 25.3477 147.746 24.6445C148.15 23.9414 148.352 21.9948 148.352 18.8047C148.352 15.6016 148.293 13.7721 148.176 13.3164C148.059 12.8607 147.759 12.457 147.277 12.1055C146.783 11.7539 146.535 11.4219 146.535 11.1094C146.535 10.6016 147.902 10.3477 150.637 10.3477C151.301 10.3477 151.743 10.4714 151.965 10.7188C152.199 10.9531 152.316 11.4154 152.316 12.1055L152.297 12.6719L152.219 13.8047L152.121 19.0391C152.121 22.6068 152.212 24.7552 152.395 25.4844C152.577 26.2005 152.967 26.7148 153.566 27.0273C154.178 27.3398 154.484 27.6654 154.484 28.0039ZM159.641 4.07812V3.53125C159.667 3.42708 159.68 3.27734 159.68 3.08203C159.68 2.8737 159.895 2.55469 160.324 2.125C160.754 1.69531 161.19 1.48047 161.633 1.48047L162.023 1.42188H162.336C162.87 1.42188 163.365 1.61719 163.82 2.00781C164.289 2.38542 164.523 2.80859 164.523 3.27734L164.582 3.74609V3.92188L164.504 4.37109C164.504 4.76172 164.263 5.15234 163.781 5.54297C163.312 5.93359 162.883 6.12891 162.492 6.12891L162.023 6.1875H161.945L161.867 6.16797H161.711C161.607 6.14193 161.529 6.12891 161.477 6.12891C161.099 6.12891 160.695 5.92057 160.266 5.50391C159.849 5.07422 159.641 4.59896 159.641 4.07812ZM159.211 29.1367C158.352 29.1367 157.922 28.8763 157.922 28.3555C157.922 28.0169 158.26 27.6979 158.938 27.3984C159.615 27.0859 160.031 26.6432 160.188 26.0703C160.357 25.4844 160.441 23.4531 160.441 19.9766L160.461 19.3711V18.7656L160.48 18.1602V16.9492L160.422 15.1523C160.422 14.1107 160.305 13.4531 160.07 13.1797C159.849 12.9062 159.406 12.6784 158.742 12.4961C158.078 12.3138 157.746 12.0534 157.746 11.7148C157.746 11.4414 157.889 11.2201 158.176 11.0508C159.087 10.5039 160.578 10.2305 162.648 10.2305C163.404 10.2305 163.846 10.4974 163.977 11.0312C164.042 11.3047 164.074 13.7852 164.074 18.4727C164.074 23.1602 164.146 25.7578 164.289 26.2656C164.432 26.7604 164.868 27.1576 165.598 27.457C166.34 27.7435 166.711 28.0039 166.711 28.2383V28.4531C166.711 28.8307 166.145 29.0195 165.012 29.0195C164.621 29.0456 164.335 29.0586 164.152 29.0586L163.273 29.0781H162.414L160.383 29.1367H159.211Z" fill="white"/>
</svg>
